<?xml version="1.0" encoding="UTF-8"?>
<svg version="1.1" xmlns="http://www.w3.org/2000/svg" width="1024" height="1024">
<path d="M0 0 C337.92 0 675.84 0 1024 0 C1024 337.92 1024 675.84 1024 1024 C686.08 1024 348.16 1024 0 1024 C0 686.08 0 348.16 0 0 Z " fill="#131418" transform="translate(0,0)"/>
<path d="M0 0 C0.92279251 -0.00700928 1.84558502 -0.01401855 2.79634094 -0.02124023 C5.82840581 -0.03876161 8.85952821 -0.02722206 11.89160156 -0.01367188 C14.00433531 -0.01636754 16.11706785 -0.02025059 18.22979736 -0.02526855 C22.64794783 -0.03115487 27.06577403 -0.02262493 31.48388672 -0.00390625 C37.15256266 0.01893857 42.82048336 0.00571952 48.48913193 -0.01819611 C52.84710414 -0.03262968 57.2048963 -0.02806025 61.56287384 -0.01768494 C63.65371032 -0.0150138 65.74456306 -0.01830096 67.83538055 -0.02760315 C70.75137385 -0.03773458 73.66613039 -0.0223179 76.58203125 0 C77.44856827 -0.00809692 78.31510529 -0.01619385 79.207901 -0.02453613 C85.00149557 0.05783289 85.00149557 0.05783289 87.60284424 2.31124878 C89.85908308 7.66750081 87.17414428 14.20521731 85.40722656 19.41601562 C85.18877075 20.06704254 84.97031494 20.71806946 84.74523926 21.38882446 C84.01481713 23.55926601 83.27354255 25.72583556 82.53222656 27.89257812 C82.00228868 29.46006989 81.47301147 31.02778515 80.94433594 32.59570312 C79.47180474 36.95536637 77.9891042 41.3115079 76.50390625 45.66687012 C74.7912384 50.69148474 73.08415186 55.71799733 71.37597656 60.74414062 C69.19916893 67.14828043 67.02097184 73.55193638 64.83764648 79.95385742 C61.52019696 89.68644025 58.21635674 99.422581 54.98925781 109.18554688 C54.581194 110.41859055 54.581194 110.41859055 54.16488647 111.67654419 C52.92388443 115.42935139 51.68814827 119.18374827 50.46191406 122.94140625 C40.51256504 153.24232969 25.54461355 179.37752771 -3.83276367 194.45019531 C-14.08021275 199.39752371 -26.03710415 203.51757812 -37.46777344 203.51757812 C-37.46777344 315.71757813 -37.46777344 427.91757812 -37.46777344 543.51757812 C117.63222656 543.51757812 272.73222656 543.51757812 432.53222656 543.51757812 C432.53222656 430.98757813 432.53222656 318.45757813 432.53222656 202.51757812 C429.23222656 202.51757812 425.93222656 202.51757812 422.53222656 202.51757812 C402.49913831 198.68236658 385.73116847 187.69579165 371.53222656 173.51757812 C370.80390625 172.80085937 370.07558594 172.08414063 369.32519531 171.34570312 C358.20456179 159.67671489 352.53668121 145.53802049 347.53222656 130.51757812 C347.1376123 129.34227539 346.74299805 128.16697266 346.33642578 126.95605469 C344.42605646 121.26448195 342.52513913 115.56982232 340.63842773 109.87036133 C336.53307644 97.47247531 332.34515363 85.10384423 328.13098145 72.74255371 C327.03616318 69.52913256 325.94345666 66.31500176 324.8515625 63.10058594 C324.49461304 62.04980865 324.13766357 60.99903137 323.76989746 59.91641235 C323.05706395 57.8179302 322.34425451 55.71943987 321.63146973 53.62094116 C319.64923456 47.78936547 317.65572496 41.96184511 315.65045166 36.13815308 C314.49477549 32.7752637 313.3485589 29.40920675 312.20483398 26.04223633 C311.67841936 24.49973031 311.14774208 22.95867162 310.61254883 21.41918945 C309.88462426 19.32405686 309.17155259 17.22443017 308.46191406 15.12304688 C307.8622583 13.37737427 307.8622583 13.37737427 307.25048828 11.59643555 C306.49586047 8.36169343 306.42657757 6.62976291 307.53222656 3.51757812 C308.83492565 1.89964199 308.83492565 1.89964199 310.53222656 0.51757812 C313.61798156 0.21586065 316.50258841 0.09768552 319.59008789 0.11352539 C320.98080254 0.10323051 320.98080254 0.10323051 322.39961243 0.09272766 C325.47131576 0.07439387 328.54251138 0.07830743 331.61425781 0.08398438 C333.74794176 0.07942487 335.88162424 0.07411999 338.01530457 0.06809998 C342.49179033 0.05915529 346.96809784 0.06160646 351.44458008 0.0715332 C357.17806535 0.08300891 362.91093348 0.06283944 368.64433765 0.03361607 C373.0530335 0.01525559 377.46158153 0.01554652 381.87030602 0.02125359 C383.9837906 0.0214069 386.09728515 0.01535405 388.21073341 0.00296211 C391.16960746 -0.01193822 394.12734288 -0.00127646 397.08618164 0.01586914 C397.95756775 0.00620117 398.82895386 -0.0034668 399.72674561 -0.01342773 C406.11022241 0.0639139 409.62963975 1.85143048 414.38745117 6.22167969 C415.15327515 7.05650879 415.15327515 7.05650879 415.93457031 7.90820312 C416.51118408 8.53122314 417.08779785 9.15424316 417.68188477 9.79614258 C418.27187256 10.44671631 418.86186035 11.09729004 419.46972656 11.76757812 C420.08871826 12.44071045 420.70770996 13.11384277 421.34545898 13.80737305 C424.91824287 17.7043985 428.45183544 21.63356536 431.90332031 25.63867188 C435.38381206 29.65333982 438.97133511 33.57430906 442.53222656 37.51757812 C451.10395952 47.00976562 451.10395952 47.00976562 454.90722656 51.39257812 C458.36006476 55.35932712 461.92100037 59.22440482 465.48266602 63.09301758 C468.61739708 66.50356619 471.68948958 69.95916928 474.72363281 73.45898438 C476.96233907 76.00714462 479.24632868 78.51168405 481.53222656 81.01757812 C484.9879807 84.80691939 488.39745546 88.6284151 491.76269531 92.49804688 C493.79176709 94.81378663 495.84694539 97.10456294 497.90722656 99.39257812 C498.66261719 100.235625 499.41800781 101.07867187 500.19628906 101.94726562 C501.75276106 103.65990538 503.3311223 105.35290559 504.93066406 107.02539062 C514.99906787 117.69589167 517.99775058 126.85403232 517.73535156 141.39257812 C517.08575504 158.69402684 507.70237631 172.92858721 495.53222656 184.51757812 C485.72714243 193.54694358 472.35619213 202.51757812 458.53222656 202.51757812 C458.53222656 315.04757812 458.53222656 427.57757812 458.53222656 543.51757812 C461.83222656 543.51757812 465.13222656 543.51757812 468.53222656 543.51757812 C475.52650316 545.18785313 479.60728468 548.46043809 483.53222656 554.51757812 C486.71714302 562.22507594 487.06047355 571.70448809 483.96972656 579.51757812 C481.42331384 584.40961117 477.45288542 588.05724869 472.53222656 590.51757812 C469.58490964 590.61832305 466.66105134 590.65679485 463.71333694 590.6517992 C462.78422131 590.65415143 461.85510567 590.65650366 460.89783502 590.65892717 C457.74920031 590.66564407 454.60060662 590.66515814 451.45196533 590.66474915 C449.18587453 590.66804609 446.91978432 590.6717713 444.65369487 590.67589062 C438.39893077 590.68593791 432.14417628 590.68963179 425.88940525 590.69227993 C419.84524343 590.69577538 413.80108892 590.70392185 407.7569317 590.71182387 C391.55758146 590.73268557 375.35822939 590.74314063 359.15886885 590.75195348 C351.49863808 590.75615738 343.83840809 590.7613797 336.17817798 590.76663801 C309.96730423 590.78452935 283.75643025 590.79952649 257.5455513 590.8069582 C255.89948405 590.80743296 254.25341681 590.80790885 252.60734956 590.80838586 C251.38287172 590.80874042 251.38287172 590.80874042 250.13365696 590.80910215 C245.99763328 590.81030338 241.86160961 590.81151882 237.72558594 590.81274414 C236.90477278 590.81298429 236.08395963 590.81322444 235.23827335 590.81347187 C208.61756161 590.82136714 181.9968944 590.84480308 155.37620211 590.87730008 C127.24531387 590.91157809 99.11445168 590.93130744 70.9835422 590.93460244 C67.8969337 590.93501999 64.81032522 590.93549956 61.72371674 590.93602562 C60.5836639 590.93621041 60.5836639 590.93621041 59.42057969 590.93639893 C47.1759489 590.93873346 34.93136971 590.95440747 22.68675732 590.97486747 C10.3847631 590.99509762 -1.91716897 591.00061611 -14.21917674 590.99109683 C-20.88715982 590.98633182 -27.55501043 590.98854169 -34.2229805 591.00785828 C-40.32230498 591.02537553 -46.42133752 591.02458569 -52.5206646 591.00896098 C-54.73200598 591.00656744 -56.94336697 591.01099792 -59.1546782 591.02278963 C-62.15198449 591.03778779 -65.14824012 591.02831961 -68.14551926 591.01256275 C-69.01157547 591.02278496 -69.87763169 591.03300717 -70.76993203 591.04353914 C-76.1573235 590.98138336 -79.18264796 590.07371368 -83.46777344 586.51757812 C-89.87178448 579.82247567 -90.95720349 573.79307891 -90.77246094 564.77148438 C-90.12749861 557.88361747 -87.6567998 553.30967684 -82.65527344 548.58007812 C-76.39621475 543.58208672 -71.51873112 543.51757812 -63.46777344 543.51757812 C-63.46777344 430.98757813 -63.46777344 318.45757813 -63.46777344 202.51757812 C-66.43777344 202.18757812 -69.40777344 201.85757813 -72.46777344 201.51757812 C-91.23519713 195.82620402 -106.1534815 182.29843287 -115.54541016 165.34375 C-118.09918311 160.28757698 -119.8651165 154.94085473 -121.46777344 149.51757812 C-121.76748047 148.54884766 -121.76748047 148.54884766 -122.07324219 147.56054688 C-124.10174327 137.05652641 -122.79857124 126.36964818 -117.06542969 117.29882812 C-112.64758477 111.33635773 -107.37923899 105.99442834 -102.31542969 100.58007812 C-100.1325599 98.24296453 -97.9971007 95.87454099 -95.90527344 93.45507812 C-92.98979426 90.08338705 -89.98701702 86.79614945 -86.96777344 83.51757812 C-83.92887167 80.21730937 -80.90621243 76.90808466 -77.96777344 73.51757812 C-75.02933334 70.12707032 -72.00663202 66.81788782 -68.96777344 63.51757812 C-65.34370395 59.58128862 -61.77059237 55.60976635 -58.26855469 51.56445312 C-56.08001679 49.07683087 -53.83538153 46.64404361 -51.59277344 44.20507812 C-48.19243781 40.48483232 -44.94112951 36.69307059 -41.78027344 32.76757812 C-38.74679665 29.0090524 -35.61524038 25.54536872 -32.14746094 22.18945312 C-28.4260994 18.48540024 -25.03575702 14.43905801 -21.71777344 10.37304688 C-20.85152344 9.33083984 -20.85152344 9.33083984 -19.96777344 8.26757812 C-19.20980469 7.33171875 -19.20980469 7.33171875 -18.43652344 6.37695312 C-12.65115421 0.9129933 -7.67401394 -0.07238234 0 0 Z " fill="#F8F8F8" transform="translate(314.4677734375,218.482421875)"/>
<path d="M0 0 C1.08239456 -0.00860046 2.16478912 -0.01720093 3.27998352 -0.02606201 C4.47275406 -0.03032196 5.6655246 -0.03458191 6.8944397 -0.03897095 C8.14651718 -0.04714844 9.39859467 -0.05532593 10.68861389 -0.06375122 C14.84657468 -0.08863653 19.00449909 -0.10527704 23.1625061 -0.11953735 C24.59318676 -0.12489674 26.02386736 -0.13027425 27.45454788 -0.13566971 C33.40456202 -0.15729682 39.35457343 -0.17603464 45.30461693 -0.1872921 C53.83623191 -0.20353949 62.36739205 -0.23673758 70.89883554 -0.29369295 C76.89549184 -0.33236401 82.89202634 -0.35192128 88.88880408 -0.35721266 C92.4717443 -0.36086963 96.05419942 -0.37292631 99.63700485 -0.4053154 C103.63324903 -0.44092471 107.62851262 -0.43703256 111.62490845 -0.42959595 C112.81363052 -0.44600128 114.0023526 -0.46240662 115.22709656 -0.47930908 C123.17728841 -0.4185265 123.17728841 -0.4185265 126.53186035 2.27928162 C128.01653726 5.42388359 129.02890661 8.35316938 129.86856079 11.73129272 C130.03185883 12.373125 130.19515686 13.01495728 130.36340332 13.67623901 C130.89984511 15.79743574 131.4178834 17.92267746 131.9359436 20.0484314 C132.31350395 21.55674394 132.6922099 23.06477011 133.07199097 24.57252502 C134.07324637 28.5605396 135.0590166 32.5522253 136.04153442 36.54489136 C137.0128831 40.48128436 137.99831489 44.41414009 138.9828186 48.34725952 C140.53405987 54.55096277 142.07526783 60.75707238 143.60977173 66.9649353 C145.12770212 73.10444469 146.6638734 79.23906564 148.21524048 85.37020874 C148.58779495 86.8460804 148.96029359 88.32196616 149.33273315 89.79786682 C149.8612295 91.89208075 150.39076817 93.9859932 150.92430878 96.07892799 C151.40826408 97.97770185 151.88753258 99.8776684 152.36660767 101.77767944 C152.77317596 103.37859688 152.77317596 103.37859688 153.18795776 105.01185608 C157.72513094 125.34530015 154.67600033 145.38415224 144.09561157 163.30380249 C140.69048513 168.5251801 136.35984232 172.84871064 131.8890686 177.15390015 C131.25613892 177.80616577 130.62320923 178.4584314 129.97109985 179.13046265 C111.90115618 196.60206381 82.10865007 204.58589522 57.67422485 204.2984314 C29.52123311 203.22344616 0.94611653 192.61769431 -18.76327515 171.9468689 C-32.48118257 155.62689584 -38.49786499 137.55849682 -37.40512085 116.34616089 C-36.44807019 105.96116849 -33.47465132 95.842401 -30.8609314 85.77890015 C-30.22278527 83.24853983 -29.58691389 80.71760484 -28.95321655 78.18612671 C-27.65998336 73.03374669 -26.35290108 67.88517241 -25.03573608 62.73886108 C-23.18312749 55.4766818 -21.40751989 48.19739236 -19.6499939 40.91171265 C-18.85067028 37.62126506 -18.04987285 34.33118099 -17.2482605 31.04129028 C-16.74357769 28.96425183 -16.24182569 26.88649885 -15.74313354 24.80801392 C-15.0516965 21.9359761 -14.34507562 19.06809588 -13.6343689 16.20077515 C-13.33824203 14.9485466 -13.33824203 14.9485466 -13.03613281 13.67102051 C-11.79707429 8.74974258 -10.26476629 5.15705518 -7.1109314 1.15390015 C-4.58493227 -0.10909942 -2.82846232 0.01669157 0 0 Z " fill="#F9F9F9" transform="translate(453.1109313964844,218.84609985351563)"/>
<path d="M0 0 C7.00797353 6.02615291 13.42417763 12.7253112 19.94508362 19.26602173 C21.52090804 20.84049668 23.09702906 22.41467483 24.6734314 23.98857117 C27.95351695 27.26572652 31.23000312 30.54642634 34.50392151 33.82974243 C38.70830522 38.04560457 42.92171963 42.25230968 47.13779736 46.45647335 C50.38318616 49.69465875 53.62382596 52.9375628 56.86301613 56.18194771 C58.41615688 57.7364248 59.97079067 59.2894116 61.52692223 60.8408947 C63.68834318 62.99726634 65.84330027 65.15989154 67.99659729 67.32437134 C68.9665287 68.28823006 68.9665287 68.28823006 69.95605469 69.27156067 C74.33961487 73.69763399 74.33961487 73.69763399 74.33961487 75.92617798 C74.99961487 75.92617798 75.65961487 75.92617798 76.33961487 75.92617798 C77.67164612 77.28164673 77.67164612 77.28164673 79.15211487 79.11367798 C81.73061091 82.22804728 84.43792522 85.10509082 87.33961487 87.92617798 C89.33961487 89.92617798 89.33961487 89.92617798 89.33961487 92.92617798 C83.07784349 93.1044472 76.81673186 93.22657405 70.55299377 93.31069946 C68.42481534 93.34578643 66.29680426 93.39347027 64.16920471 93.45425415 C61.10058735 93.53969296 58.03420933 93.57898375 54.96461487 93.60977173 C54.02158508 93.64590073 53.0785553 93.68202972 52.10694885 93.71925354 C45.71187986 93.72300903 42.56617614 92.25909863 38.0398407 87.74440002 C37.47876617 87.14438675 36.91769165 86.54437347 36.33961487 85.92617798 C35.08169128 84.73230469 35.08169128 84.73230469 33.7983551 83.51431274 C33.08880676 82.80589233 32.37925842 82.09747192 31.64820862 81.36758423 C30.84834534 80.56901001 30.04848206 79.77043579 29.22438049 78.94766235 C28.41678284 78.13619751 27.60918518 77.32473267 26.77711487 76.48867798 C25.96565002 75.68108032 25.15418518 74.87348267 24.31813049 74.04141235 C23.51955627 73.24154907 22.72098206 72.44168579 21.89820862 71.61758423 C21.18978821 70.90803589 20.4813678 70.19848755 19.7514801 69.46743774 C17.77597815 67.38595178 15.88810619 65.27235056 14.01075745 63.10391235 C10.49181021 59.05735447 6.81172889 55.20425068 3.04273987 51.39102173 C2.36845947 50.70866959 1.69417908 50.02631744 0.99946594 49.32328796 C-0.41758863 47.89251065 -1.83612542 46.46319991 -3.25608826 45.03530884 C-4.68963626 43.59022617 -6.11870335 42.14068422 -7.54319763 40.68667603 C-21.31123882 26.63444672 -36.86798686 13.00198998 -57.69700623 12.54580688 C-80.08372068 12.60338319 -95.8250125 22.88045672 -111.1832695 38.23776722 C-113.13589691 40.20104267 -115.08365317 42.16907709 -117.03147888 44.13711548 C-118.40336546 45.5152827 -119.7757753 46.89292921 -121.14868164 48.27008057 C-124.73763702 51.87225435 -128.32095439 55.479979 -131.90263367 59.08938599 C-137.6579975 64.88811467 -143.42033759 70.67989265 -149.18579292 76.46858597 C-151.19684895 78.48987296 -153.204467 80.5145291 -155.21176147 82.53955078 C-156.4359774 83.77059038 -157.66030105 85.00152286 -158.88475037 86.23233032 C-159.4431662 86.79748352 -160.00158203 87.36263672 -160.57691956 87.94491577 C-165.46869086 92.85118443 -165.46869086 92.85118443 -168.57130432 93.0464325 C-169.34851837 93.04421188 -170.12573242 93.04199127 -170.92649841 93.03970337 C-172.24764145 93.03959007 -172.24764145 93.03959007 -173.59547424 93.03947449 C-174.54759796 93.0343132 -175.49972168 93.02915192 -176.48069763 93.02383423 C-177.45449371 93.02241928 -178.42828979 93.02100433 -179.43159485 93.01954651 C-182.54955586 93.01393771 -185.66744573 93.00138371 -188.78538513 92.98867798 C-190.89606118 92.98366411 -193.00673835 92.97910101 -195.11741638 92.9750061 C-200.29843035 92.96396542 -205.47940266 92.94721871 -210.66038513 92.92617798 C-210.0791542 89.67390694 -209.15926335 88.05727836 -206.8122406 85.75332642 C-206.21426666 85.15880676 -205.61629272 84.56428711 -205.00019836 83.95175171 C-204.34923187 83.31940613 -203.69826538 82.68706055 -203.02757263 82.03555298 C-202.3575119 81.37210876 -201.68745117 80.70866455 -200.99708557 80.02511597 C-198.8501596 77.90159492 -196.69337597 75.78844867 -194.53538513 73.67617798 C-192.4004998 71.57656803 -190.26783202 69.47477675 -188.13795471 67.37008667 C-186.81333655 66.06218786 -185.48563393 64.75740242 -184.1542511 63.45639038 C-181.10193856 60.45236273 -178.16892901 57.40831201 -175.37791443 54.15908813 C-170.74822844 48.79555575 -165.74066427 43.80188578 -160.75022888 38.77774048 C-160.23352694 38.25696301 -159.71682499 37.73618553 -159.18446541 37.19962692 C-156.4480129 34.44245531 -153.70839338 31.68847461 -150.96629333 28.93692017 C-148.17340961 26.13300977 -145.39241258 23.31761424 -142.61395931 20.49941444 C-140.44052168 18.29951324 -138.25793931 16.10884827 -136.07301521 13.92036057 C-135.0456351 12.88818987 -134.02155565 11.85272038 -133.00124931 10.81355667 C-96.59862167 -26.2196596 -41.60103733 -34.35469589 0 0 Z " fill="#F6F6F7" transform="translate(572.6603851318359,613.0738220214844)"/>
<path d="M0 0 C6.26177137 -0.17826922 12.52288301 -0.30039607 18.78662109 -0.38452148 C20.91479952 -0.41960846 23.04281061 -0.46729229 25.17041016 -0.52807617 C28.23902752 -0.61351498 31.30540553 -0.65280577 34.375 -0.68359375 C35.31802979 -0.71972275 36.26105957 -0.75585175 37.23266602 -0.79307556 C43.32736583 -0.79665466 46.47924092 0.35931659 50.79168701 4.6603241 C51.88480194 5.81846367 51.88480194 5.81846367 53 7 C54.46102372 8.45264668 55.92217233 9.90516938 57.38514137 11.3558569 C59.65952483 13.62338939 61.90888484 15.91509136 64.15929031 18.20638657 C66.6586703 20.74844185 69.16790963 23.28067398 71.67650414 25.81363106 C76.32693338 30.50942805 80.97348157 35.20889694 85.60302734 39.92529297 C88.84310249 43.22538243 92.09579408 46.51258654 95.35667038 49.79211807 C96.58343095 51.03047601 97.80569174 52.2733113 99.02293777 53.5210228 C112.38947578 67.21349093 127.75630368 78.90313766 147.640625 80.16796875 C166.05154192 80.30577501 180.62902341 73.28547539 193.6328125 60.50390625 C196.93364859 57.21618522 200.1956424 53.89297699 203.44921875 50.55859375 C206.89790271 47.04771861 210.45481843 43.74512669 214.20507812 40.55957031 C218.06411096 37.20653689 221.7591644 33.66870994 224.8125 29.5625 C225.204375 29.046875 225.59625 28.53125 226 28 C226.66 28 227.32 28 228 28 C228.3403125 27.15115234 228.3403125 27.15115234 228.6875 26.28515625 C230.3619779 23.36977061 232.45391139 21.62461973 235 19.4375 C237.81722892 17.00927798 239.92978755 15.10531867 242 12 C242.66 12 243.32 12 244 12 C244.26433838 11.42701172 244.52867676 10.85402344 244.80102539 10.26367188 C247.35636991 5.43916477 250.04699783 2.45610511 255 0 C262.56617517 -1.36033611 270.41894953 -0.75058883 278.0625 -0.5 C280.18938627 -0.45983034 282.31634531 -0.42333571 284.44335938 -0.390625 C289.6307151 -0.30288523 294.81455246 -0.16507087 300 0 C300 3.50201626 299.6135579 3.78069337 297.29896545 6.20437622 C296.70763289 6.83000395 296.11630033 7.45563168 295.50704861 8.10021782 C294.85511563 8.77371332 294.20318266 9.44720882 293.53149414 10.14111328 C292.85567071 10.84981127 292.17984728 11.55850925 291.48354435 12.28868294 C283.91394101 20.19732548 276.21874049 27.98336932 268.49609375 35.7421875 C267.36797114 36.8764234 267.36797114 36.8764234 266.21705818 38.03357315 C262.2485825 42.02266061 258.27701706 46.00864226 254.30297852 49.9921875 C250.24142595 54.06486062 246.19171641 58.14910758 242.14440823 62.23592949 C238.98611032 65.42052763 235.81880961 68.59605923 232.64912605 71.76932144 C231.15286088 73.2704036 229.65992347 74.77481163 228.17065239 76.2828331 C217.27214002 87.31019833 206.0603575 97.70200638 191.875 104.375 C191.20887695 104.69678223 190.54275391 105.01856445 189.85644531 105.35009766 C169.24286177 115.09335261 143.84918904 118.02288109 122.02099609 110.29980469 C104.176416 103.51040953 89.35556765 92.70790706 75.97021484 79.19726562 C74.70981384 77.9373027 74.70981384 77.9373027 73.4239502 76.65188599 C70.68150455 73.9080606 67.94618769 71.15724676 65.2109375 68.40625 C63.29808752 66.48854453 61.3837212 64.57235551 59.46939087 62.65612793 C54.96785805 58.14841446 50.47144153 53.63563407 45.97690642 49.1209445 C40.85381191 43.97538377 35.72493952 38.83559839 30.59560847 33.69625568 C20.05736301 23.13718573 9.52628256 12.57099678 -1 2 C-0.67 1.34 -0.34 0.68 0 0 Z " fill="#F6F6F7" transform="translate(362,456)"/>
<path d="M0 0 C12.33454867 -0.11571659 24.66896879 -0.20462545 37.00394917 -0.25906086 C42.73126168 -0.28518378 48.45820356 -0.32063156 54.18530273 -0.37719727 C59.70959821 -0.43142007 65.23353663 -0.46140021 70.75807762 -0.47438622 C72.86850801 -0.48364355 74.97891829 -0.50172056 77.08919716 -0.52865028 C80.03947198 -0.56481091 82.98826089 -0.56995076 85.9387207 -0.56762695 C87.2550222 -0.59459152 87.2550222 -0.59459152 88.59791565 -0.62210083 C90.84739223 -0.60285755 92.82119327 -0.55999647 95 0 C97.06632996 2.53547668 97.06632996 2.53547668 98 5 C97.34 5 96.68 5 96 5 C95.67 6.32 95.34 7.64 95 9 C94.01 6.03 94.01 6.03 93 3 C73.79177098 2.04076552 54.59355284 1.7101741 35.36627197 1.46777344 C31.36263718 1.41655203 27.35905638 1.36140428 23.35546875 1.30664062 C15.57035884 1.20070269 7.78520248 1.09892922 0 1 C0 0.67 0 0.34 0 0 Z " fill="#E5E5E6" transform="translate(305,219)"/>
<path d="M0 0 C0.99 0 1.98 0 3 0 C4.14889133 3.93905597 4.52582695 7.93565958 5 12 C5.66 12 6.32 12 7 12 C7.13277344 12.55171875 7.26554688 13.1034375 7.40234375 13.671875 C8.05660641 16.22050602 8.80035064 18.73159343 9.5625 21.25 C9.83191406 22.14203125 10.10132813 23.0340625 10.37890625 23.953125 C10.58386719 24.62859375 10.78882813 25.3040625 11 26 C10.01 26 9.02 26 8 26 C6.6618184 22.04328884 5.330278 18.08437472 4 14.125 C3.6184375 12.99707031 3.236875 11.86914062 2.84375 10.70703125 C2.4828125 9.63066406 2.121875 8.55429688 1.75 7.4453125 C1.41484375 6.45031738 1.0796875 5.45532227 0.734375 4.43017578 C0 2 0 2 0 0 Z " fill="#F2F2F3" transform="translate(625,237)"/>
<path d="M0 0 C0.78503906 -0.01224609 1.57007813 -0.02449219 2.37890625 -0.03710938 C4.42063726 -0.04236254 6.46192251 0.0652982 8.5 0.1875 C9.16 0.8475 9.82 1.5075 10.5 2.1875 C6.8107187 3.34328988 3.28599595 3.35476606 -0.5625 3.375 C-2.40521484 3.39626953 -2.40521484 3.39626953 -4.28515625 3.41796875 C-7.5 3.1875 -7.5 3.1875 -10.5 1.1875 C-7.21646451 -0.45426774 -3.60480362 0.00295961 0 0 Z " fill="#F0F0F1" transform="translate(514.5,419.8125)"/>
<path d="M0 0 C0.33 0 0.66 0 1 0 C1.03738281 1.01578125 1.07476562 2.0315625 1.11328125 3.078125 C1.50169954 11.71806344 2.49069602 19.66721696 5 28 C4.01 28.33 3.02 28.66 2 29 C-0.08063634 19.07877361 -1.62385096 10.1539596 0 0 Z " fill="#1B1B1D" transform="translate(415,338)"/>
<path d="M0 0 C3.30109027 2.63144053 3.99610533 5.58470185 5.125 9.5625 C6.30355284 13.88206393 6.30355284 13.88206393 8 18 C7.01 18 6.02 18 5 18 C4.16112944 15.56427941 3.32873471 13.12666783 2.5 10.6875 C2.14228516 9.65206055 2.14228516 9.65206055 1.77734375 8.59570312 C0.76791737 5.61068511 0 3.17341086 0 0 Z " fill="#F0F0F1" transform="translate(640,281)"/>
<path d="M0 0 C0.66 0.66 1.32 1.32 2 2 C-0.475 3.485 -0.475 3.485 -3 5 C-1.125 1.125 -1.125 1.125 0 0 Z M-7 8 C-6.34 8.66 -5.68 9.32 -5 10 C-7.97 12.475 -7.97 12.475 -11 15 C-11 12 -11 12 -9 9.8125 C-8.34 9.214375 -7.68 8.61625 -7 8 Z " fill="#EEEEEF" transform="translate(237,291)"/>
<path d="M0 0 C0.33 0 0.66 0 1 0 C1.28571429 7.42857143 1.28571429 7.42857143 -1 11 C-1.66 11 -2.32 11 -3 11 C-2.69217504 9.35328588 -2.37860766 7.70764424 -2.0625 6.0625 C-1.88847656 5.14597656 -1.71445312 4.22945313 -1.53515625 3.28515625 C-1 1 -1 1 0 0 Z " fill="#F0F0F1" transform="translate(425,298)"/>
<path d="M0 0 C0.66 0.33 1.32 0.66 2 1 C1.01 3.97 0.02 6.94 -1 10 C-1.66 9.67 -2.32 9.34 -3 9 C-2.5020163 5.26512223 -2.12508244 3.18762365 0 0 Z " fill="#F0F1F1" transform="translate(377,298)"/>
<path d="M0 0 C-4.43076923 3.07692308 -4.43076923 3.07692308 -7.3125 2.6875 C-8.1478125 2.3471875 -8.1478125 2.3471875 -9 2 C-8.67 1.34 -8.34 0.68 -8 0 C-4.71585695 -0.95067299 -3.30306592 -1.10102197 0 0 Z " fill="#EEEDEE" transform="translate(792,806)"/>
<path d="M0 0 C1.88391785 3.26545761 2.49287967 6.28111761 3 10 C0.9375 8.375 0.9375 8.375 -1 6 C-0.75 2.75 -0.75 2.75 0 0 Z " fill="#E1E2E2" transform="translate(601,307)"/>
<path d="M0 0 C-2.35968744 2.09749995 -3.54616994 2.96905704 -6.75 3.1875 C-7.86375 3.0946875 -7.86375 3.0946875 -9 3 C-9 2.34 -9 1.68 -9 1 C-2.25 -1.125 -2.25 -1.125 0 0 Z " fill="#E8E8E9" transform="translate(490,595)"/>
<path d="M0 0 C0 0.66 0 1.32 0 2 C-2.8125 2.625 -2.8125 2.625 -6 3 C-6.99 2.34 -7.98 1.68 -9 1 C-2.25 -1.125 -2.25 -1.125 0 0 Z " fill="#1B1C1F" transform="translate(300,418)"/>
<path d="M0 0 C0 0.99 0 1.98 0 3 C-0.99 3.495 -0.99 3.495 -2 4 C-1.34 2.68 -0.68 1.36 0 0 Z M-4 5 C-3.34 5.66 -2.68 6.32 -2 7 C-3.32 7.99 -4.64 8.98 -6 10 C-6 7 -6 7 -4 5 Z " fill="#F2F2F2" transform="translate(211,320)"/>
<path d="M0 0 C0.66 0 1.32 0 2 0 C5 5.75 5 5.75 5 8 C4.01 8 3.02 8 2 8 C1.34 5.36 0.68 2.72 0 0 Z " fill="#EDEEEE" transform="translate(663,350)"/>
<path d="M0 0 C3.36720387 1.39332574 4.9859524 2.9789286 7 6 C6.67 6.66 6.34 7.32 6 8 C4.99403703 7.0479279 3.99538437 6.08812654 3 5.125 C2.443125 4.59132813 1.88625 4.05765625 1.3125 3.5078125 C0 2 0 2 0 0 Z " fill="#ECEDED" transform="translate(780,284)"/>
</svg>
